<?xml version="1.0" encoding="utf-8"?>
<!-- Generator: Adobe Illustrator 17.1.0, SVG Export Plug-In . SVG Version: 6.00 Build 0)  -->
<!DOCTYPE svg PUBLIC "-//W3C//DTD SVG 1.1//EN" "http://www.w3.org/Graphics/SVG/1.1/DTD/svg11.dtd">
<svg version="1.1" id="Слой_1" xmlns="http://www.w3.org/2000/svg" xmlns:xlink="http://www.w3.org/1999/xlink" x="0px" y="0px"
	 width="19px" height="27px" viewBox="0 0 19 27" enable-background="new 0 0 19 27" xml:space="preserve">
<path fill="#444444" d="M0.1,0.8C0,0.7,0,0.6,0,0.5s0-0.2,0.1-0.3c0.2-0.2,0.5-0.2,0.7,0l5.6,5.3l5.6-5.3c0.2-0.2,0.5-0.2,0.7,0
	s0.2,0.4,0,0.6l-6,5.6c-0.2,0.2-0.5,0.2-0.7,0L0.1,0.8z"/>
<path fill="#E0564F" d="M0.1,21.2C0,21.1,0,21,0,20.9s0-0.2,0.1-0.3c0.2-0.2,0.5-0.2,0.7,0l5.6,5.3l5.6-5.3c0.2-0.2,0.5-0.2,0.7,0
	c0.2,0.2,0.2,0.4,0,0.6l-6,5.6c-0.2,0.2-0.5,0.2-0.7,0L0.1,21.2z"/>
</svg>
