<?xml version="1.0" encoding="utf-8"?>
<!-- Generator: Adobe Illustrator 17.1.0, SVG Export Plug-In . SVG Version: 6.00 Build 0)  -->
<!DOCTYPE svg PUBLIC "-//W3C//DTD SVG 1.1//EN" "http://www.w3.org/Graphics/SVG/1.1/DTD/svg11.dtd">
<svg version="1.1" id="Слой_1" xmlns="http://www.w3.org/2000/svg" xmlns:xlink="http://www.w3.org/1999/xlink" x="0px" y="0px"
	 width="20px" height="60px" viewBox="0 0 20 60" enable-background="new 0 0 20 60" xml:space="preserve">
<g id="Слой_2">
	<g id="_x31__4_">
		<path id="_x31__3_" fill="#E0564F" d="M1.3,57.2h16.8c0.5,0,0.9,0.4,0.9,0.9l0,0c0,0.5-0.4,0.9-0.9,0.9H1.3
			c-0.5,0-0.9-0.4-0.9-0.9l0,0C0.3,57.6,0.7,57.2,1.3,57.2z"/>
		<path id="_x32__1_" fill="#E0564F" d="M1.3,51h12.1c0.5,0,0.9,0.4,0.9,0.9l0,0c0,0.5-0.4,0.9-0.9,0.9H1.3c-0.5,0-0.9-0.4-0.9-0.9
			l0,0C0.4,51.4,0.8,51,1.3,51z"/>
		<path id="_x31__2_" fill="#E0564F" d="M1.3,45h16.8c0.5,0,0.9,0.4,0.9,0.9l0,0c0,0.5-0.4,0.9-0.9,0.9H1.3c-0.6,0-0.9-0.4-0.9-0.9
			l0,0C0.3,45.3,0.7,45,1.3,45z"/>
	</g>
	<g id="_x31__5_">
		<path id="_x31__7_" fill="#777777" d="M1.2,12.3H18c0.5,0,0.9,0.4,0.9,0.9l0,0c0,0.5-0.4,0.9-0.9,0.9H1.2c-0.5,0-0.9-0.4-0.9-0.9
			l0,0C0.3,12.6,0.7,12.3,1.2,12.3z"/>
		<path id="_x32__3_" fill="#777777" d="M1.3,6.1h12.1c0.5,0,0.9,0.4,0.9,0.9l0,0C14.4,7.5,14,8,13.4,8H1.3C0.8,8,0.4,7.6,0.4,7l0,0
			C0.4,6.5,0.7,6.1,1.3,6.1z"/>
		<path id="_x31__6_" fill="#777777" d="M1.2,0H18C18.5,0,19,0.4,19,1l0,0c0,0.5-0.4,0.9-0.9,0.9H1.2C0.7,1.9,0.3,1.5,0.3,1l0,0
			C0.3,0.4,0.7,0,1.2,0z"/>
	</g>
</g>
</svg>
