<?xml version="1.0" encoding="utf-8"?>
<!-- Generator: Adobe Illustrator 17.1.0, SVG Export Plug-In . SVG Version: 6.00 Build 0)  -->
<!DOCTYPE svg PUBLIC "-//W3C//DTD SVG 1.1//EN" "http://www.w3.org/Graphics/SVG/1.1/DTD/svg11.dtd">
<svg version="1.1" id="Слой_1" xmlns="http://www.w3.org/2000/svg" xmlns:xlink="http://www.w3.org/1999/xlink" x="0px" y="0px"
	 width="24px" height="22px" viewBox="0 0 24 22" enable-background="new 0 0 24 22" xml:space="preserve">
<path id="_x31__7_" fill="#808AED" d="M2.1,14.5h19.6c0.6,0,1.1,0.5,1.1,1.1l0,0c0,0.6-0.5,1.1-1.1,1.1H2.1c-0.6,0-1.1-0.5-1.1-1.1
	l0,0C1.1,14.9,1.6,14.5,2.1,14.5z"/>
<path id="_x31__6_" fill="#808AED" d="M2.1,7h19.6c0.6,0,1.2,0.5,1.2,1.2l0,0c0,0.6-0.5,1.1-1.1,1.1H2.1c-0.6,0-1.1-0.5-1.1-1.1l0,0
	C1.1,7.5,1.6,7,2.1,7z"/>
<path id="_x31__1_" fill="#808AED" d="M2.1,0.1h19.6c0.6,0,1.2,0.5,1.2,1.2l0,0c0,0.6-0.5,1.1-1.1,1.1H2.1c-0.6,0-1.1-0.5-1.1-1.1
	l0,0C1.1,0.6,1.6,0.1,2.1,0.1z"/>
</svg>
