<?xml version="1.0" encoding="utf-8"?>
<!-- Generator: Adobe Illustrator 17.1.0, SVG Export Plug-In . SVG Version: 6.00 Build 0)  -->
<!DOCTYPE svg PUBLIC "-//W3C//DTD SVG 1.1//EN" "http://www.w3.org/Graphics/SVG/1.1/DTD/svg11.dtd">
<svg version="1.1" id="Слой_2_3_" xmlns="http://www.w3.org/2000/svg" xmlns:xlink="http://www.w3.org/1999/xlink" x="0px"
	 y="0px" width="20px" height="60px" viewBox="0 0 20 60" enable-background="new 0 0 20 60" xml:space="preserve">
<g id="_x31_">
	<path fill="#E0564F" d="M19.1,45.9c-0.3-0.6-1-1-1.6-1H5.2l-0.6-2.2c-0.1-0.4-0.5-0.7-1-0.7H1.7c-0.5,0-1,0.4-1,1c0,0.5,0.4,1,1,1
		h1.2l2.7,9.9c0.1,0.4,0.5,0.7,1,0.7h8.7c0.4,0,0.7-0.2,0.9-0.5l3.2-6.3C19.5,47.2,19.5,46.5,19.1,45.9z M14.6,52.7H7.3l-1.6-5.8
		h11.8L14.6,52.7z"/>
	<circle fill="#E0564F" cx="6.1" cy="58" r="1.4"/>
	<circle fill="#E0564F" cx="15.7" cy="58" r="1.4"/>
</g>
<g id="_x31__1_">
	<path fill="#777777" d="M19.2,3.9c-0.3-0.6-1-1-1.6-1H5.2L4.7,0.7C4.6,0.3,4.2,0,3.7,0H1.8c-0.5,0-1,0.4-1,1s0.4,1,1,1H3l2.7,9.9
		c0.1,0.4,0.5,0.7,1,0.7h8.7c0.4,0,0.7-0.2,0.9-0.5l3.2-6.3C19.6,5.1,19.5,4.4,19.2,3.9z M14.7,10.6H7.3L5.8,4.8h11.8L14.7,10.6z"/>
	<circle fill="#777777" cx="6.1" cy="15.9" r="1.4"/>
	<circle fill="#777777" cx="15.8" cy="15.9" r="1.4"/>
</g>
</svg>
