<?xml version="1.0" encoding="utf-8"?>
<!-- Generator: Adobe Illustrator 17.1.0, SVG Export Plug-In . SVG Version: 6.00 Build 0)  -->
<!DOCTYPE svg PUBLIC "-//W3C//DTD SVG 1.1//EN" "http://www.w3.org/Graphics/SVG/1.1/DTD/svg11.dtd">
<svg version="1.1" id="Слой_1" xmlns="http://www.w3.org/2000/svg" xmlns:xlink="http://www.w3.org/1999/xlink" x="0px" y="0px"
	 width="19px" height="19px" viewBox="0 0 19 19" enable-background="new 0 0 19 19" xml:space="preserve">
<path id="search" fill="#FFFFFF" d="M8.2,1C4.2,1,1,4.2,1,8.2c0,4,3.2,7.2,7.2,7.2c1.7,0,3.2-0.6,4.5-1.6l3.9,3.9
	c0.3,0.3,0.9,0.3,1.2,0c0.3-0.3,0.3-0.9,0-1.2l-3.9-3.9c1-1.2,1.5-2.8,1.5-4.4C15.4,4.2,12.2,1,8.2,1L8.2,1z M8.2,2.7
	c3.1,0,5.5,2.5,5.5,5.5c0,3.1-2.5,5.5-5.5,5.5c-3.1,0-5.5-2.5-5.5-5.5C2.7,5.2,5.1,2.7,8.2,2.7L8.2,2.7z"/>
</svg>
