<?xml version="1.0" encoding="utf-8"?>
<!-- Generator: Adobe Illustrator 17.1.0, SVG Export Plug-In . SVG Version: 6.00 Build 0)  -->
<!DOCTYPE svg PUBLIC "-//W3C//DTD SVG 1.1//EN" "http://www.w3.org/Graphics/SVG/1.1/DTD/svg11.dtd">
<svg version="1.1" id="Слой_1" xmlns="http://www.w3.org/2000/svg" xmlns:xlink="http://www.w3.org/1999/xlink" x="0px" y="0px"
	 width="23px" height="100px" viewBox="0 0 23 100" enable-background="new 0 0 23 100" xml:space="preserve">
<g>
	<path fill="#606653" d="M16.5,51.1c-1.3,0-2.4,1.1-2.4,2.4c0,1.3,1.1,2.4,2.4,2.4s2.4-1.1,2.4-2.4C18.9,52.2,17.8,51.1,16.5,51.1
		L16.5,51.1z"/>
	<path fill="#606653" d="M8.8,51.1c-1.3,0-2.4,1.1-2.4,2.4c0,1.3,1.1,2.4,2.4,2.4s2.4-1.1,2.4-2.4C11.2,52.2,10.1,51.1,8.8,51.1
		L8.8,51.1z"/>
	<path fill="#A4D84A" d="M21.6,37.9c-0.4-0.4-1-0.8-1.6-0.8H3.6c-0.3,0-0.7,0.3-0.7,0.7s0.3,0.7,0.7,0.7h0.1l1.2,9.2
		c-0.3,0-0.5,0.3-0.5,0.7C4.4,48.6,4.7,49,5,49h13.6c0.7,0,1.2-0.2,1.8-0.7c0.4-0.4,0.8-1,0.9-1.6l1-7C22.2,39,22.1,38.3,21.6,37.9
		L21.6,37.9z"/>
	<path fill="#FFFFFF" d="M21.1,42.4H16l0.3-4.5c0-0.3-0.2-0.7-0.7-0.7c-0.3,0-0.7,0.2-0.7,0.7l-0.3,4.6H11l-0.3-4.6
		c0-0.3-0.3-0.7-0.7-0.7c-0.3,0-0.7,0.3-0.7,0.7l0.3,4.5H4.3c-0.3,0-0.7,0.3-0.7,0.7s0.3,0.7,0.7,0.7h5.6l0.2,4.6
		c0,0.3,0.3,0.7,0.7,0.7l0,0c0.3,0,0.7-0.3,0.7-0.7l-0.3-4.5h3.5l-0.3,4.4c0,0.3,0.2,0.7,0.7,0.7l0,0c0.3,0,0.7-0.2,0.7-0.7l0.3-4.6
		H21c0.3,0,0.7-0.3,0.7-0.7C21.6,42.6,21.4,42.4,21.1,42.4L21.1,42.4z"/>
	<path fill="#606653" d="M20.3,52.4H7.1c-0.7,0-1.2-0.2-1.8-0.7c-0.4-0.4-0.8-1-0.9-1.6l-1.8-14c-0.1-0.8-0.5-1.2-0.8-1.2h-1
		c-0.3,0-0.7-0.3-0.7-0.7s0.3-0.7,0.7-0.7H2c1,0,1.9,1,2.1,2.3l1.9,14C6,50.5,6.7,51,7.2,51h13.2c0.3,0,0.7,0.3,0.7,0.7
		C21,52.2,20.6,52.4,20.3,52.4L20.3,52.4z"/>
</g>
<g id="Слой_1_1_">
	<polygon fill="#FFC648" points="1.5,20.2 11.5,0.3 21.6,20.2 	"/>
	<polygon fill="#F9B721" points="21.6,20.4 1.5,20.4 1.5,3.6 11.5,18.1 21.6,3.6 	"/>
	<rect x="1.5" y="18.4" display="none" fill="#666666" width="20.1" height="2"/>
	<path display="none" fill="#FFFFFF" d="M13.8,8.2c0-0.1,0-0.2-0.1-0.2l-2-2.8c0-0.1-0.1-0.1-0.2-0.1c-0.1,0-0.1,0-0.2,0.1L9.3,8
		c0,0.1-0.1,0.1-0.1,0.2c0,0.1,0,0.2,0.1,0.2l2,2.8c0,0.1,0.1,0.1,0.2,0.1c0.1,0,0.1,0,0.2-0.1l2-2.8C13.8,8.4,13.8,8.3,13.8,8.2
		L13.8,8.2z"/>
</g>
<g id="Слой_2" display="none">
	<polygon display="inline" fill="#E95454" points="6.6,76.8 1.5,86.4 6.2,86 8.4,90.1 13.5,80.5 	"/>
	<g display="inline">
		<path fill="#ED6362" d="M7.2,87.3c0.1-0.3,0-0.7-0.3-0.8l-0.3-0.2c-0.3-0.2-0.4-0.5-0.2-0.8c0.2-0.3,0.5-0.4,0.9-0.3l0.8,0.4
			c0.3,0.1,0.6,0,0.7-0.2l0,0c0.2-0.2,0.1-0.6-0.2-0.7l-2.5-1.3c-0.3-0.2-0.5-0.5-0.3-0.8s0.5-0.5,0.9-0.3L9,83.5
			c0.3,0.1,0.6,0,0.7-0.2l0,0l0,0c0.1-0.3,0-0.6-0.2-0.8l-1.3-0.7c-0.3-0.2-0.5-0.5-0.3-0.8s0.5-0.5,0.9-0.3l1.4,0.8
			c0.3,0.1,0.6,0,0.7-0.2l0,0l0,0c0.1-0.3,0.1-0.6-0.2-0.7l-1.5-0.8c-0.3-0.2-0.4-0.5-0.3-0.8c0.2-0.3,0.5-0.5,0.9-0.3l3.8,2
			l-5.1,9.6L7,87.5C7.1,87.5,7.2,87.4,7.2,87.3z"/>
		<polygon fill="#ED6362" points="16.2,76.8 21.3,86.4 16.7,86 14.4,90.1 9.3,80.5 		"/>
	</g>
	<path display="inline" fill="#E95454" d="M15.6,87.3c-0.1-0.3,0-0.7,0.3-0.8l0.3-0.2c0.3-0.2,0.4-0.5,0.2-0.8
		c-0.2-0.3-0.5-0.4-0.9-0.3l-0.8,0.4c-0.3,0.1-0.6,0-0.7-0.2l0,0c-0.2-0.2-0.1-0.6,0.2-0.7l2.5-1.3c0.3-0.2,0.5-0.5,0.3-0.8
		s-0.5-0.5-0.9-0.3l-2.3,1.2c-0.3,0.1-0.6,0-0.7-0.2l0,0l0,0c-0.1-0.3,0-0.6,0.2-0.8l1.3-0.7c0.3-0.2,0.5-0.5,0.3-0.8
		s-0.5-0.5-0.9-0.3l-1.4,0.8c-0.3,0.1-0.6,0-0.7-0.2l0,0l0,0c-0.1-0.3-0.1-0.6,0.2-0.7l1.5-0.8c0.3-0.2,0.4-0.5,0.3-0.8
		c-0.2-0.3-0.5-0.5-0.9-0.3l-3.8,2l5.1,9.6l1.4-2.6C15.7,87.5,15.7,87.4,15.6,87.3z"/>
	<circle display="inline" fill="#FFCC5B" cx="11.4" cy="75.2" r="8.5"/>
	<path display="inline" fill="#FDBC4B" d="M12.6,74.3H7.2c-0.4,0-0.8-0.3-0.8-0.8v-0.1l0,0c0-0.4,0.4-0.8,0.8-0.8H11
		c0.5,0,0.9-0.4,1-0.9c0-0.5-0.4-1-0.9-1H7c-0.4,0-0.8-0.4-0.8-0.8l0,0l0,0c0-0.4,0.3-0.8,0.8-0.8h4.2c0.5,0,0.9-0.4,1-0.9
		c0-0.5-0.4-1-0.9-1h-3C5.2,68.5,3,71.5,3,75.1s2.2,6.6,5.3,7.9h3.9c0.5,0,0.9-0.4,1-0.9c0-0.5-0.4-1-0.9-1H7.9
		c-0.5,0-0.9-0.4-0.9-1c0-0.5,0.5-0.9,1-0.9h1.7c0.5,0,0.9-0.4,0.9-0.9s-0.4-0.9-0.9-0.9H6.9c-0.4,0-0.8-0.3-0.8-0.8v-0.1
		c0-0.4,0.3-0.8,0.7-0.8h5.7c0.5,0,0.9-0.4,1-0.9C13.5,74.7,13.1,74.3,12.6,74.3z"/>
	<path display="inline" fill="#FFDB70" d="M11.4,81.3c-3.4,0-6.1-2.7-6.1-6.1s2.7-6.1,6.1-6.1s6.1,2.7,6.1,6.1S14.8,81.3,11.4,81.3z
		"/>
	<path display="inline" opacity="0.2" fill="#FFFFFF" enable-background="new    " d="M17.5,75.2c0-3.2-2.5-5.9-5.7-6.1h-0.6
		c-0.4,0-0.7,0.3-0.7,0.7c0,0.4,0.3,0.7,0.7,0.7h3.4c0.4,0,0.7,0.3,0.7,0.7c0,0.4-0.4,0.7-0.7,0.7h-1.3c-0.4,0-0.7,0.3-0.7,0.7
		c0,0.4,0.3,0.7,0.7,0.7h2c0.3,0,0.6,0.3,0.6,0.6l0,0c0,0.3-0.2,0.6-0.5,0.6h-4.3c-0.4,0-0.7,0.3-0.7,0.7c0,0.4,0.3,0.7,0.7,0.7h4.1
		c0.3,0,0.6,0.3,0.6,0.6l0,0l0,0c0,0.3-0.3,0.6-0.6,0.6H12c-0.4,0-0.7,0.3-0.7,0.7c0,0.4,0.3,0.7,0.7,0.7h3c0.3,0,0.6,0.3,0.6,0.6
		l0,0l0,0c0,0.3-0.2,0.6-0.6,0.6h-3.2c-0.4,0-0.7,0.3-0.7,0.7c0,0.4,0.3,0.7,0.7,0.7h0.8C15.4,80.6,17.5,78.2,17.5,75.2z"/>
	<path display="inline" fill="#EC9922" d="M15.7,73.9h-3l-0.9-2.8c-0.1-0.4-0.6-0.4-0.7,0l-0.9,2.8h-3c-0.4,0-0.5,0.5-0.2,0.7
		l2.4,1.7l-0.9,2.8c-0.1,0.4,0.3,0.7,0.6,0.4l2.4-1.7l2.4,1.7c0.3,0.2,0.7-0.1,0.6-0.4l-0.9-2.8l2.4-1.7
		C16.2,74.4,16.1,73.9,15.7,73.9z"/>
</g>
<g id="Слой_2_1_">
	<path fill="#8893FC" d="M21.6,74.6v24.9c0,0.4-0.6,0.6-1,0.3L12,92.7c-0.2-0.2-0.6-0.2-0.8,0l-8.7,7.2c-0.4,0.3-1,0.1-1-0.3v-25
		c0-0.8,0.8-1.4,1.7-1.4h16.7C20.9,73.2,21.6,73.9,21.6,74.6z"/>
	<path fill="#909BFC" d="M1.5,74.7c0-0.3,0.3-0.5,0.6-0.5h18.2c0.3,0,0.6,0.2,0.6,0.5v24.1c0,0.3-0.4,0.4-0.7,0.2l-7.8-6.2
		c-0.3-0.3-0.8-0.4-1.3-0.4s-1,0.2-1.3,0.4L2.2,99c-0.2,0.2-0.7,0.1-0.7-0.2V74.7z"/>
	
		<linearGradient id="SVGID_1_" gradientUnits="userSpaceOnUse" x1="2.8354" y1="108.5363" x2="-12.3159" y2="123.6875" gradientTransform="matrix(1.0667 0 0 -1.0667 19.3332 209.7334)">
		<stop  offset="1.000006e-004" style="stop-color:#888FFD;stop-opacity:0"/>
		<stop  offset="1" style="stop-color:#888FFD"/>
	</linearGradient>
	<path fill="url(#SVGID_1_)" d="M20.6,83.3l-3.7-3.4L15,79.7h-0.1L11,76c-0.1-0.3-0.5-0.3-0.7,0l-1.7,3.2c-0.1,0.1-0.2,0.2-0.3,0.2
		l-3.9,0.5c-0.3,0-0.4,0.4-0.2,0.6l2.9,2.6v0.1l-0.7,3.5c0,0.1,0,0.2,0.1,0.3c0.1,0.1,10.1,9.2,13.9,12.7L20.6,83.3L20.6,83.3z"/>
	<path fill="#FFFFFF" d="M11.9,75.3l2,4c0.1,0.1,0.2,0.2,0.3,0.2l4.4,0.6c0.3,0.1,0.5,0.5,0.2,0.7l-3.2,3.1
		c-0.1,0.1-0.1,0.2-0.1,0.4l0.8,4.4c0.1,0.3-0.3,0.6-0.6,0.4l-4-2.1c-0.1-0.1-0.3-0.1-0.4,0l-4,2.1C7,89.3,6.6,89,6.7,88.7l0.8-4.4
		c0-0.1,0-0.3-0.1-0.4l-3.2-3.1c-0.3-0.2-0.1-0.7,0.2-0.7l4.4-0.6c0.1,0,0.3-0.1,0.3-0.2l2-4C11.3,75,11.7,75,11.9,75.3z"/>
	
		<linearGradient id="SVGID_2_" gradientUnits="userSpaceOnUse" x1="-6.2136" y1="119.8822" x2="-9.5522" y2="123.2203" gradientTransform="matrix(1.0667 0 0 -1.0667 19.3332 209.7334)">
		<stop  offset="0" style="stop-color:#FFC200;stop-opacity:0"/>
		<stop  offset="0.203" style="stop-color:#FFBB00;stop-opacity:0.203"/>
		<stop  offset="0.499" style="stop-color:#FFA700;stop-opacity:0.499"/>
		<stop  offset="0.852" style="stop-color:#FF8800;stop-opacity:0.852"/>
		<stop  offset="1" style="stop-color:#FF7800"/>
	</linearGradient>
	<path display="none" fill="url(#SVGID_2_)" d="M13.5,81.1L13.4,81l-1.6-3.2c-0.1-0.1-0.2-0.2-0.3-0.2v6.2L13.5,81.1z"/>
	
		<linearGradient id="SVGID_3_" gradientUnits="userSpaceOnUse" x1="-4.0762" y1="118.4947" x2="-7.2932" y2="121.7117" gradientTransform="matrix(1.0667 0 0 -1.0667 19.3332 209.7334)">
		<stop  offset="0" style="stop-color:#FFC200;stop-opacity:0"/>
		<stop  offset="0.203" style="stop-color:#FFBB00;stop-opacity:0.203"/>
		<stop  offset="0.499" style="stop-color:#FFA700;stop-opacity:0.499"/>
		<stop  offset="0.852" style="stop-color:#FF8800;stop-opacity:0.852"/>
		<stop  offset="1" style="stop-color:#FF7800"/>
	</linearGradient>
	<path display="none" fill="url(#SVGID_3_)" d="M17.2,81.7l-3.5-0.5c-0.1,0-0.1,0-0.2-0.1l-2,2.7l5.9-2
		C17.4,81.8,17.3,81.7,17.2,81.7z"/>
	
		<linearGradient id="SVGID_4_" gradientUnits="userSpaceOnUse" x1="-2.9181" y1="117.2428" x2="-5.9741" y2="120.2989" gradientTransform="matrix(1.0667 0 0 -1.0667 19.3332 209.7334)">
		<stop  offset="0" style="stop-color:#FFC200;stop-opacity:0"/>
		<stop  offset="0.203" style="stop-color:#FFBB00;stop-opacity:0.203"/>
		<stop  offset="0.499" style="stop-color:#FFA700;stop-opacity:0.499"/>
		<stop  offset="0.852" style="stop-color:#FF8800;stop-opacity:0.852"/>
		<stop  offset="1" style="stop-color:#FF7800"/>
	</linearGradient>
	<path display="none" fill="url(#SVGID_4_)" d="M17.4,82.3l-2.6,2.5c-0.1,0-0.1,0.1-0.1,0.2l-3.2-1.1l5.9-2l0,0
		C17.5,82,17.5,82.1,17.4,82.3z"/>
	
		<linearGradient id="SVGID_5_" gradientUnits="userSpaceOnUse" x1="-4.0466" y1="115.0902" x2="-8.8562" y2="119.8998" gradientTransform="matrix(1.0667 0 0 -1.0667 19.3332 209.7334)">
		<stop  offset="0" style="stop-color:#FFC200;stop-opacity:0"/>
		<stop  offset="0.203" style="stop-color:#FFBB00;stop-opacity:0.203"/>
		<stop  offset="0.499" style="stop-color:#FFA700;stop-opacity:0.499"/>
		<stop  offset="0.852" style="stop-color:#FF8800;stop-opacity:0.852"/>
		<stop  offset="1" style="stop-color:#FF7800"/>
	</linearGradient>
	<path display="none" fill="url(#SVGID_5_)" d="M15.2,88.9l-3.7-5.1l3.2,1.1V85l0.6,3.5C15.3,88.7,15.3,88.8,15.2,88.9z"/>
	
		<linearGradient id="SVGID_6_" gradientUnits="userSpaceOnUse" x1="-5.3046" y1="114.3326" x2="-9.1197" y2="118.1478" gradientTransform="matrix(1.0667 0 0 -1.0667 19.3332 209.7334)">
		<stop  offset="0" style="stop-color:#FFC200;stop-opacity:0"/>
		<stop  offset="0.203" style="stop-color:#FFBB00;stop-opacity:0.203"/>
		<stop  offset="0.499" style="stop-color:#FFA700;stop-opacity:0.499"/>
		<stop  offset="0.852" style="stop-color:#FF8800;stop-opacity:0.852"/>
		<stop  offset="1" style="stop-color:#FF7800"/>
	</linearGradient>
	<path display="none" fill="url(#SVGID_6_)" d="M15.2,88.9c-0.1,0.1-0.2,0.1-0.4,0l-3.2-1.7c0,0-0.1,0-0.2,0v-3.4L15.2,88.9z"/>
	
		<linearGradient id="SVGID_7_" gradientUnits="userSpaceOnUse" x1="-8.4735" y1="119.8818" x2="-5.1354" y2="123.2199" gradientTransform="matrix(1.0667 0 0 -1.0667 19.3332 209.7334)">
		<stop  offset="0" style="stop-color:#FFC200;stop-opacity:0"/>
		<stop  offset="0.203" style="stop-color:#FFBB00;stop-opacity:0.203"/>
		<stop  offset="0.499" style="stop-color:#FFA700;stop-opacity:0.499"/>
		<stop  offset="0.852" style="stop-color:#FF8800;stop-opacity:0.852"/>
		<stop  offset="1" style="stop-color:#FF7800"/>
	</linearGradient>
	<path display="none" fill="url(#SVGID_7_)" d="M9.5,81.1L9.6,81l1.6-3.2c0.1-0.1,0.2-0.2,0.3-0.2v6.2L9.5,81.1z"/>
	
		<linearGradient id="SVGID_8_" gradientUnits="userSpaceOnUse" x1="-10.6107" y1="118.4945" x2="-7.3942" y2="121.7115" gradientTransform="matrix(1.0667 0 0 -1.0667 19.3332 209.7334)">
		<stop  offset="0" style="stop-color:#FFC200;stop-opacity:0"/>
		<stop  offset="0.203" style="stop-color:#FFBB00;stop-opacity:0.203"/>
		<stop  offset="0.499" style="stop-color:#FFA700;stop-opacity:0.499"/>
		<stop  offset="0.852" style="stop-color:#FF8800;stop-opacity:0.852"/>
		<stop  offset="1" style="stop-color:#FF7800"/>
	</linearGradient>
	<path display="none" fill="url(#SVGID_8_)" d="M5.8,81.7l3.5-0.5c0.1,0,0.1,0,0.2-0.1l2,2.7l-5.9-2C5.6,81.8,5.7,81.7,5.8,81.7z"/>
	
		<linearGradient id="SVGID_9_" gradientUnits="userSpaceOnUse" x1="-11.7693" y1="117.2423" x2="-8.7132" y2="120.2984" gradientTransform="matrix(1.0667 0 0 -1.0667 19.3332 209.7334)">
		<stop  offset="0" style="stop-color:#FFC200;stop-opacity:0"/>
		<stop  offset="0.203" style="stop-color:#FFBB00;stop-opacity:0.203"/>
		<stop  offset="0.499" style="stop-color:#FFA700;stop-opacity:0.499"/>
		<stop  offset="0.852" style="stop-color:#FF8800;stop-opacity:0.852"/>
		<stop  offset="1" style="stop-color:#FF7800"/>
	</linearGradient>
	<path display="none" fill="url(#SVGID_9_)" d="M5.6,82.3l2.6,2.5c0.1,0,0.1,0.1,0.1,0.2l3.2-1.1l-5.9-2l0,0
		C5.5,82,5.5,82.1,5.6,82.3z"/>
	
		<linearGradient id="SVGID_10_" gradientUnits="userSpaceOnUse" x1="-10.6404" y1="115.0899" x2="-5.8309" y2="119.8996" gradientTransform="matrix(1.0667 0 0 -1.0667 19.3332 209.7334)">
		<stop  offset="0" style="stop-color:#FFC200;stop-opacity:0"/>
		<stop  offset="0.203" style="stop-color:#FFBB00;stop-opacity:0.203"/>
		<stop  offset="0.499" style="stop-color:#FFA700;stop-opacity:0.499"/>
		<stop  offset="0.852" style="stop-color:#FF8800;stop-opacity:0.852"/>
		<stop  offset="1" style="stop-color:#FF7800"/>
	</linearGradient>
	<path display="none" fill="url(#SVGID_10_)" d="M7.8,88.9l3.7-5.1l-3.2,1.1V85l-0.6,3.5C7.7,88.7,7.7,88.8,7.8,88.9z"/>
	
		<linearGradient id="SVGID_11_" gradientUnits="userSpaceOnUse" x1="-6.9091" y1="113.5469" x2="-10.503" y2="117.1403" gradientTransform="matrix(1.0667 0 0 -1.0667 19.3332 209.7334)">
		<stop  offset="0" style="stop-color:#FFC200;stop-opacity:0"/>
		<stop  offset="0.203" style="stop-color:#FFBB00;stop-opacity:0.203"/>
		<stop  offset="0.499" style="stop-color:#FFA700;stop-opacity:0.499"/>
		<stop  offset="0.852" style="stop-color:#FF8800;stop-opacity:0.852"/>
		<stop  offset="1" style="stop-color:#FF7800"/>
	</linearGradient>
	<path display="none" fill="url(#SVGID_11_)" d="M7.8,88.9C7.9,89,8,89,8.2,88.9l3.2-1.7c0,0,0.1,0,0.2,0v-3.4L7.8,88.9z"/>
</g>
</svg>
