<?xml version="1.0" encoding="utf-8"?>
<!-- Generator: Adobe Illustrator 17.1.0, SVG Export Plug-In . SVG Version: 6.00 Build 0)  -->
<!DOCTYPE svg PUBLIC "-//W3C//DTD SVG 1.1//EN" "http://www.w3.org/Graphics/SVG/1.1/DTD/svg11.dtd">
<svg version="1.1" id="Слой_2" xmlns="http://www.w3.org/2000/svg" xmlns:xlink="http://www.w3.org/1999/xlink" x="0px" y="0px"
	 width="40px" height="40px" viewBox="0 0 40 40" enable-background="new 0 0 40 40" xml:space="preserve">
<path fill="#FCBA29" d="M20,40c11,0,20-9,20-20S31,0,20,0S0,9,0,20S9,40,20,40z"/>
<path fill="#FFFFFF" d="M20,13.1c1.2,0,2.1,1,2.1,2.1c0,1.2-0.9,2.1-2.1,2.1s-2.1-0.9-2.1-2.1C17.9,14.1,18.9,13.1,20,13.1z
	 M20,20.4c2.8,0,5.1-2.3,5.1-5.1s-2.3-5.1-5.1-5.1s-5.1,2.3-5.1,5.1S17.2,20.4,20,20.4z M22.1,24.6c1.1-0.2,2.1-0.7,3-1.2
	c0.7-0.4,0.9-1.4,0.5-2.1s-1.4-0.9-2.1-0.5l0,0c-2.1,1.3-4.8,1.3-6.9,0c-0.7-0.4-1.6-0.2-2.1,0.5s-0.2,1.6,0.5,2.1l0,0
	c0.9,0.6,1.9,1,3,1.2l-2.9,2.9c-0.6,0.6-0.6,1.5,0,2.1s1.5,0.6,2.1,0l0,0l2.8-2.8l2.8,2.8c0.6,0.6,1.5,0.6,2.1,0.1
	c0.6-0.6,0.6-1.5,0.1-2.1c0,0,0,0-0.1-0.1L22.1,24.6"/>
</svg>
