<?xml version="1.0" encoding="utf-8"?>
<!-- Generator: Adobe Illustrator 17.1.0, SVG Export Plug-In . SVG Version: 6.00 Build 0)  -->
<!DOCTYPE svg PUBLIC "-//W3C//DTD SVG 1.1//EN" "http://www.w3.org/Graphics/SVG/1.1/DTD/svg11.dtd">
<svg version="1.1" id="Слой_3" xmlns="http://www.w3.org/2000/svg" xmlns:xlink="http://www.w3.org/1999/xlink" x="0px" y="0px"
	 width="40px" height="40px" viewBox="0 0 40 40" enable-background="new 0 0 40 40" xml:space="preserve">
<path fill="#01AAFF" d="M28.6,16.5c0,0.2,0,0.4,0,0.5c0,5.4-4.1,11.7-11.7,11.7c-2.3,0-4.5-0.7-6.3-1.8c0.3,0,0.6,0.1,1,0.1
	c1.8,0,3.6-0.6,5.1-1.8c-1.8,0-3.3-1.2-3.8-2.8c0.6,0.1,1.2,0.1,1.9-0.1c-1.9-0.4-3.3-2.1-3.3-4v-0.1c0.6,0.3,1.2,0.5,1.9,0.5
	c-1.8-1.2-2.4-3.6-1.3-5.5c2.1,2.6,5.2,4.1,8.5,4.3c-0.5-2.2,0.9-4.4,3.1-4.9c1.4-0.3,2.9,0.1,3.9,1.2c0.9-0.2,1.8-0.5,2.6-1
	c-0.3,0.9-0.9,1.8-1.8,2.3c0.8-0.1,1.6-0.3,2.4-0.6C30.1,15.2,29.4,16,28.6,16.5 M20,0C9,0,0,9,0,20s9,20,20,20s20-9,20-20
	S31,0,20,0"/>
</svg>
