<?xml version="1.0" encoding="utf-8"?>
<!-- Generator: Adobe Illustrator 17.1.0, SVG Export Plug-In . SVG Version: 6.00 Build 0)  -->
<!DOCTYPE svg PUBLIC "-//W3C//DTD SVG 1.1//EN" "http://www.w3.org/Graphics/SVG/1.1/DTD/svg11.dtd">
<svg version="1.1" id="Слой_1" xmlns="http://www.w3.org/2000/svg" xmlns:xlink="http://www.w3.org/1999/xlink" x="0px" y="0px"
	 width="46px" height="30px" viewBox="0 0 46 30" enable-background="new 0 0 46 30" xml:space="preserve">
<g id="Слой_3">
	<path fill="#D4D5D6" d="M16.4,20.1c0-0.6-0.4-1-1-1H7.2c-0.6,0-1,0.4-1,1s0.4,1,1,1h8.2C16,21.2,16.4,20.8,16.4,20.1z"/>
	<path fill="#D4D5D6" d="M13.4,15c0-0.6-0.4-1-1-1H4.1c-0.6,0-1,0.4-1,1s0.4,1,1,1h8.2C12.9,16,13.4,15.6,13.4,15z"/>
	<path fill="#D4D5D6" d="M10.3,9.9c0-0.6-0.4-1-1-1H1c-0.6,0-1,0.4-1,1s0.4,1,1,1h8.2C9.9,10.9,10.3,10.5,10.3,9.9z"/>
	<path fill="#D4D5D6" d="M39.4,6l-10.9,8.3c-1.1,0.8-2.7,0.8-3.8,0L13.9,6c-0.4-0.3-1.1-0.3-1.4,0.2c-0.3,0.4-0.3,1.1,0.2,1.4
		l11,8.3c0.9,0.7,2.1,1,3.1,1s2.3-0.3,3.1-1l10.9-8.3c0.4-0.3,0.5-1,0.2-1.4C40.6,5.8,39.9,5.7,39.4,6z"/>
	<path fill="#D4D5D6" d="M42.1,1.7H9.2c-0.6,0-1,0.4-1,1s0.4,1,1,1h32.9c0.6,0,1,0.4,1,1v20.5c0,0.6-0.4,1-1,1H9.2c-0.6,0-1,0.4-1,1
		s0.4,1,1,1h32.9c1.7,0,3.1-1.3,3.1-3.1V4.7C45.2,3,43.9,1.7,42.1,1.7z"/>
	<path fill="#D4D5D6" d="M33.2,16.3c-0.4,0.4-0.4,1,0,1.4l6.2,6.2c0.2,0.2,0.5,0.3,0.7,0.3s0.5-0.1,0.7-0.3c0.4-0.4,0.4-1,0-1.4
		l-6.2-6.2C34.2,15.9,33.6,15.9,33.2,16.3z"/>
</g>
</svg>
