<?xml version="1.0" encoding="utf-8"?>
<!-- Generator: Adobe Illustrator 17.1.0, SVG Export Plug-In . SVG Version: 6.00 Build 0)  -->
<!DOCTYPE svg PUBLIC "-//W3C//DTD SVG 1.1//EN" "http://www.w3.org/Graphics/SVG/1.1/DTD/svg11.dtd">
<svg version="1.1" id="Слой_1" xmlns="http://www.w3.org/2000/svg" xmlns:xlink="http://www.w3.org/1999/xlink" x="0px" y="0px"
	 width="40px" height="40px" viewBox="0 0 40 40" enable-background="new 0 0 40 40" xml:space="preserve">
<circle fill="#5C9BDD" cx="20" cy="20" r="20"/>
<path fill="#FFFFFF" d="M19.2,26.6h1.2c0,0,0.4,0,0.6-0.2s0.2-0.5,0.2-0.5s0-1.6,0.7-1.9c0.8-0.2,1.7,1.6,2.7,2.3
	c0.8,0.5,1.4,0.4,1.4,0.4h2.7c0,0,1.4-0.1,0.8-1.2c-0.1-0.1-0.4-0.8-2-2.4c-1.7-1.6-1.5-1.3,0.6-4.1c1.3-1.7,1.8-2.7,1.6-3.1
	c-0.1-0.4-1.1-0.3-1.1-0.3h-3.1c0,0-0.2,0-0.4,0.1c-0.2,0.1-0.3,0.3-0.3,0.3s-0.5,1.3-1.1,2.4c-1.4,2.3-1.9,2.4-2.1,2.3
	c-0.5-0.3-0.4-1.4-0.4-2.1c0-2.3,0.3-3.2-0.7-3.4C20.1,15.1,19.9,15,19,15c-1.1,0-2,0-2.6,0.3c-0.4,0.2-0.6,0.6-0.5,0.6
	c0.2,0,0.7,0.1,0.9,0.5c0.3,0.4,0.3,1.4,0.3,1.4s0.2,2.7-0.4,3c-0.4,0.2-1-0.2-2.2-2.3c-0.5-1.3-1-2.5-1-2.5s-0.1-0.2-0.3-0.3
	c-0.1-0.1-0.3-0.2-0.5-0.2H9.8c0,0-0.4,0-0.6,0.2c-0.1,0.2,0,0.5,0,0.5s2.3,5.4,4.9,8.1C16.5,26.8,19.2,26.6,19.2,26.6"/>
</svg>
